<?xml version="1.0" encoding="utf-8"?>
<svg viewBox="0 0 56 62" style="enable-background:new 0 0 56 62;" xmlns="http://www.w3.org/2000/svg">
  <defs>
    <style type="text/css">
	.st0{fill-rule:evenodd;clip-rule:evenodd;fill:#FFFFFF;}
	.st1{clip-path:url(#SVGID_2_);fill:none;stroke:#1D1E1B;stroke-linecap:round;stroke-linejoin:round;stroke-miterlimit:22.926;}
</style>
  </defs>
  <polygon class="st0" points="5.65,4.75 29.08,0.72 52.26,14.55 27.82,18.5 " transform="matrix(1, 0, 0, 1, 8.881784197001252e-16, 8.881784197001252e-16)"/>
  <g transform="matrix(1, 0, 0, 1, 8.881784197001252e-16, 8.881784197001252e-16)">
    <defs>
      <rect id="SVGID_1_" x="1.23" y="-0.15" width="54.77" height="60.41"/>
    </defs>
    <clipPath id="SVGID_2_">
      <rect x="1.23" y="-0.15" width="54.77" height="60.41" style="overflow: visible;"/>
    </clipPath>
    <polygon class="st1" points="5.55,4.36 28.98,0.33 52.16,14.16 27.72,18.12 &#9;"/>
    <path class="st1" d="M5.55,4.36l-2.4,0.81l24.56,15.46l27.32-4.19l-2.88-2.28l-24.44,3.95L5.55,4.36z M55.04,16.44l0.48,2.4 l-28.16,3.95L1.71,6.13l1.44-0.96 M55.52,18.84L43.29,51.55l-1.82,0L41.42,54l2.38,1.4l0.05,2.2l-16.36,2.17l-0.42-3.55L41.42,54 M27.48,59.77l-9.71-5.83v-3.61l1.74-0.66 M19.57,48.04v4.03l7.49,4.15L41.42,54 M27.06,56.22l0.29-33.43 M19.57,48.04l-1.3-0.57 M19.51,49.66L1.71,19.08V6.13"/>
  </g>
  <g transform="matrix(1.234861969947815, 0, 0, 1.1969729661941528, 12.427788734436035, 11.651758193969728)" style="">
    <g id="c129_exclamation">
      <path class="exclamationMark" d="M13.983,0C6.261,0,0.001,6.259,0.001,13.979c0,7.724,6.26,13.984,13.982,13.984s13.98-6.261,13.98-13.984 C27.963,6.259,21.705,0,13.983,0z M13.983,26.531c-6.933,0-12.55-5.62-12.55-12.553c0-6.93,5.617-12.548,12.55-12.548 c6.931,0,12.549,5.618,12.549,12.548C26.531,20.911,20.913,26.531,13.983,26.531z" style="fill: red;"/>
      <polygon class="exclamationMark" points="15.579,17.158 16.191,4.579 11.804,4.579 12.414,17.158 &#9;&#9;" style="fill: red;"/>
      <path class="exclamationMark" d="M13.998,18.546c-1.471,0-2.5,1.029-2.5,2.526c0,1.443,0.999,2.528,2.444,2.528h0.056c1.499,0,2.469-1.085,2.469-2.528 C16.441,19.575,15.468,18.546,13.998,18.546z" style="fill: red;"/>
    </g>
    <g id="Capa_1_207_"/>
  </g>
</svg>