<?xml version="1.0" encoding="utf-8"?>
<!-- Generator: Adobe Illustrator 24.1.1, SVG Export Plug-In . SVG Version: 6.00 Build 0)  -->
<svg version="1.1" id="katman_1" xmlns="http://www.w3.org/2000/svg" xmlns:xlink="http://www.w3.org/1999/xlink" x="0px" y="0px"
	 viewBox="0 0 56 62" style="enable-background:new 0 0 56 62;" xml:space="preserve">
<style type="text/css">
	.st0{fill-rule:evenodd;clip-rule:evenodd;fill:#FFFFFF;}
	.st1{clip-path:url(#SVGID_2_);fill:none;stroke:#1D1E1B;stroke-linecap:round;stroke-linejoin:round;stroke-miterlimit:22.926;}
</style>
<polygon class="st0" points="5.65,4.75 29.08,0.72 52.26,14.55 27.82,18.5 "/>
<g>
	<defs>
		<rect id="SVGID_1_" x="1.23" y="-0.15" width="54.77" height="60.41"/>
	</defs>
	<clipPath id="SVGID_2_">
		<use xlink:href="#SVGID_1_"  style="overflow:visible;"/>
	</clipPath>
	<polygon class="st1" points="5.55,4.36 28.98,0.33 52.16,14.16 27.72,18.12 	"/>
	<path class="st1" d="M5.55,4.36l-2.4,0.81l24.56,15.46l27.32-4.19l-2.88-2.28l-24.44,3.95L5.55,4.36z M55.04,16.44l0.48,2.4
		l-28.16,3.95L1.71,6.13l1.44-0.96 M55.52,18.84L43.29,51.55l-1.82,0L41.42,54l2.38,1.4l0.05,2.2l-16.36,2.17l-0.42-3.55L41.42,54
		 M27.48,59.77l-9.71-5.83v-3.61l1.74-0.66 M19.57,48.04v4.03l7.49,4.15L41.42,54 M27.06,56.22l0.29-33.43 M19.57,48.04l-1.3-0.57
		 M19.51,49.66L1.71,19.08V6.13"/>
</g>
</svg>
