<?xml version="1.0" standalone="no"?>
<!DOCTYPE svg PUBLIC "-//W3C//DTD SVG 20010904//EN"
 "http://www.w3.org/TR/2001/REC-SVG-20010904/DTD/svg10.dtd">
<svg version="1.0" xmlns="http://www.w3.org/2000/svg"
 width="512.000000pt" height="512.000000pt" viewBox="0 0 512.000000 512.000000"
 preserveAspectRatio="xMidYMid meet">

<g transform="translate(0.000000,512.000000) scale(0.100000,-0.100000)"
fill="#000000" stroke="none">
<path d="M1890 3944 c-89 -24 -161 -65 -226 -130 -91 -90 -111 -142 -188 -474
-77 -336 -82 -372 -63 -467 l14 -71 -121 -4 c-113 -3 -126 -5 -188 -36 -77
-38 -130 -92 -166 -171 -23 -48 -27 -73 -30 -174 l-4 -118 -193 -155 c-176
-141 -216 -180 -459 -442 l-267 -287 3 -99 c2 -79 6 -101 19 -109 13 -8 127
28 485 152 258 90 475 168 482 173 9 8 12 92 12 359 0 334 1 349 19 349 33 0
73 42 104 109 209 462 733 683 1210 511 339 -123 590 -451 623 -815 l7 -75
603 0 c534 0 604 2 618 16 9 8 16 18 16 21 0 2 46 201 102 441 83 359 101 451
101 517 1 105 -118 626 -165 724 -58 121 -182 219 -323 256 -87 22 -1940 22
-2025 -1z m2144 -1006 c8 -13 8 -23 0 -35 -10 -17 -47 -18 -509 -21 -513 -2
-525 -1 -525 37 0 41 4 41 524 39 463 -3 500 -4 510 -20z m-3116 -1143 l-3
-135 -148 148 -148 148 148 118 148 118 3 -130 c1 -72 1 -192 0 -267z m-38
-215 c0 -3 -79 -33 -175 -66 -96 -34 -175 -58 -175 -54 0 14 50 365 56 389 5
22 18 12 150 -120 79 -79 144 -146 144 -149z m-408 47 c-16 -108 -31 -199 -34
-202 -5 -5 -342 -125 -353 -125 -3 0 -5 20 -3 45 3 43 11 53 207 265 112 121
206 219 208 217 1 -2 -10 -92 -25 -200z"/>
<path d="M1868 2750 c-183 -33 -373 -143 -480 -276 -227 -283 -250 -655 -58
-947 206 -316 591 -444 947 -315 180 65 349 214 437 386 l17 32 957 0 957 0
110 110 110 110 112 0 c142 0 143 1 143 119 0 54 -4 91 -12 99 -8 8 -62 12
-175 12 l-163 0 -113 -75 -112 -75 -871 0 -871 0 -6 83 c-26 343 -262 631
-592 722 -70 19 -269 28 -337 15z m247 -325 c256 -67 415 -329 350 -580 -63
-239 -296 -395 -535 -358 -277 43 -464 320 -395 586 67 258 329 417 580 352z"/>
<path d="M1932 2149 c-48 -14 -109 -80 -123 -131 -23 -89 12 -182 88 -229 57
-36 154 -34 210 3 62 41 88 90 88 168 0 77 -26 127 -85 166 -43 29 -125 39
-178 23z"/>
</g>
</svg>
