<?xml version="1.0" standalone="no"?>
<!DOCTYPE svg PUBLIC "-//W3C//DTD SVG 20010904//EN"
 "http://www.w3.org/TR/2001/REC-SVG-20010904/DTD/svg10.dtd">
<svg version="1.0" xmlns="http://www.w3.org/2000/svg"
 width="512.000000pt" height="512.000000pt" viewBox="0 0 512.000000 512.000000"
 preserveAspectRatio="xMidYMid meet">

<g transform="translate(0.000000,512.000000) scale(0.100000,-0.100000)"
fill="#000000" stroke="none">
<path d="M12 4308 c-8 -8 -12 -46 -12 -105 0 -81 2 -94 19 -103 11 -5 29 -10
40 -10 20 0 21 -2 23 -767 l3 -768 27 -57 c35 -75 104 -142 186 -181 l67 -32
1675 0 1675 0 67 32 c82 39 151 106 186 181 l27 57 3 768 c2 765 3 767 23 767
11 0 29 5 40 10 17 9 19 22 19 103 0 59 -4 97 -12 105 -17 17 -4039 17 -4056
0z m3988 -103 l0 -35 -1960 0 -1960 0 0 35 0 35 1960 0 1960 0 0 -35z m-2795
-346 c24 -6 62 -26 84 -45 71 -61 72 -71 69 -489 l-3 -370 -29 -53 c-36 -65
-82 -107 -156 -141 l-55 -26 -275 0 -275 0 -55 26 c-74 34 -120 76 -156 141
l-29 53 -3 370 c-3 322 -1 375 13 412 20 51 82 108 133 121 53 14 682 15 737
1z m1200 0 c24 -6 62 -26 84 -45 71 -61 72 -71 69 -489 l-3 -370 -29 -53 c-36
-65 -82 -107 -156 -141 l-55 -26 -275 0 -275 0 -55 26 c-74 34 -120 76 -156
141 l-29 53 -3 370 c-3 322 -1 375 13 412 20 51 82 108 133 121 53 14 682 15
737 1z m1200 0 c24 -6 62 -26 84 -45 71 -61 72 -71 69 -489 l-3 -370 -29 -53
c-36 -65 -82 -107 -156 -141 l-55 -26 -275 0 -275 0 -55 26 c-74 34 -120 76
-156 141 l-29 53 -3 370 c-3 322 -1 375 13 412 20 51 82 108 133 121 53 14
682 15 737 1z"/>
<path d="M612 2148 c-21 -21 -13 -58 17 -89 35 -35 45 -35 136 -9 163 48 338
33 490 -40 93 -45 171 -108 250 -202 45 -55 62 -68 85 -68 45 0 57 8 111 74
190 230 472 318 744 232 177 -56 315 -174 406 -348 22 -43 48 -82 59 -88 12
-6 226 -10 595 -10 l575 0 323 -81 322 -80 147 3 c160 3 175 8 222 72 29 39
29 133 0 172 -47 64 -62 69 -232 74 l-157 6 -308 117 -308 117 -265 0 -264 0
0 68 c0 40 -5 73 -12 80 -17 17 -2919 17 -2936 0z"/>
<path d="M812 1980 c-109 -29 -187 -74 -272 -160 -87 -86 -131 -163 -160 -276
-36 -141 -18 -294 52 -427 42 -81 164 -203 245 -245 133 -70 286 -88 427 -52
114 29 190 73 276 160 87 87 132 165 160 276 36 141 18 294 -52 427 -42 81
-164 203 -245 245 -132 69 -291 88 -431 52z m238 -316 c105 -31 190 -149 190
-264 0 -150 -130 -280 -280 -280 -150 0 -280 130 -280 280 0 149 126 277 276
279 22 1 64 -6 94 -15z"/>
<path d="M2092 1980 c-109 -29 -187 -74 -272 -160 -87 -86 -131 -163 -160
-276 -36 -141 -18 -294 52 -427 42 -81 164 -203 245 -245 133 -70 286 -88 427
-52 114 29 190 73 276 160 87 87 132 165 160 276 36 141 18 294 -52 427 -42
81 -164 203 -245 245 -132 69 -291 88 -431 52z m238 -316 c105 -31 190 -149
190 -264 0 -150 -130 -280 -280 -280 -150 0 -280 130 -280 280 0 149 126 277
276 279 22 1 64 -6 94 -15z"/>
</g>
</svg>
