<svg xmlns="http://www.w3.org/2000/svg" xmlns:xlink="http://www.w3.org/1999/xlink" version="1.1" width="940" height="788" viewBox="0 0 940 788" xml:space="preserve">
<desc>Created with Fabric.js 3.5.0</desc>
<defs>
</defs>
<rect x="0" y="0" width="100%" height="100%" fill="#29ff00"/>
<g transform="matrix(10.0538 0 0 10.0538 469.9987 430.9452)" id="67539">
<g style="" vector-effect="non-scaling-stroke">
		<g transform="matrix(1 0 0 1 0.955 -21.39)" id="katman_1">
<polygon style="stroke: none; stroke-width: 1; stroke-dasharray: none; stroke-linecap: butt; stroke-dashoffset: 0; stroke-linejoin: miter; stroke-miterlimit: 4; is-custom-font: none; font-file-url: none; fill: rgb(255,255,255); fill-rule: evenodd; opacity: 1;" points="-23.305,-4.86 0.125,-8.89 23.305,4.94 -1.135,8.89 "/>
</g>
		<g transform="matrix(1 0 0 1 0.855 -21.775)" id="katman_1" clip-path="url(#CLIPPATH_3)">
<clipPath id="CLIPPATH_3">
	<rect transform="matrix(1 0 0 1 -0.24 20.83)" id="SVGID_2_" x="-27.385" y="-30.205" rx="0" ry="0" width="54.77" height="60.41"/>
</clipPath>
<polygon style="stroke: rgb(29,30,27); stroke-width: 1; stroke-dasharray: none; stroke-linecap: round; stroke-dashoffset: 0; stroke-linejoin: round; stroke-miterlimit: 22.926; is-custom-font: none; font-file-url: none; fill: none; fill-rule: nonzero; opacity: 1;" points="-23.305,-4.865 0.125,-8.895 23.305,4.935 -1.135,8.895 "/>
</g>
		<g transform="matrix(1 0 0 1 0.615 1.065)" id="katman_1" clip-path="url(#CLIPPATH_4)">
<clipPath id="CLIPPATH_4">
	<rect transform="matrix(1 0 0 1 0 -2.01)" id="SVGID_2_" x="-27.385" y="-30.205" rx="0" ry="0" width="54.77" height="60.41"/>
</clipPath>
<path style="stroke: rgb(29,30,27); stroke-width: 1; stroke-dasharray: none; stroke-linecap: round; stroke-dashoffset: 0; stroke-linejoin: round; stroke-miterlimit: 22.926; is-custom-font: none; font-file-url: none; fill: none; fill-rule: nonzero; opacity: 1;" transform=" translate(-28.615, -32.065)" d="M 5.55 4.36 l -2.4 0.81 l 24.56 15.46 l 27.32 -4.19 l -2.88 -2.28 l -24.44 3.95 L 5.55 4.36 z M 55.04 16.44 l 0.48 2.4 l -28.16 3.95 L 1.71 6.13 l 1.44 -0.96 M 55.52 18.84 L 43.29 51.55 l -1.82 0 L 41.42 54 l 2.38 1.4 l 0.05 2.2 l -16.36 2.17 l -0.42 -3.55 L 41.42 54 M 27.48 59.77 l -9.71 -5.83 v -3.61 l 1.74 -0.66 M 19.57 48.04 v 4.03 l 7.49 4.15 L 41.42 54 M 27.06 56.22 l 0.29 -33.43 M 19.57 48.04 l -1.3 -0.57 M 19.51 49.66 L 1.71 19.08 V 6.13" stroke-linecap="round"/>
</g>
</g>
</g>
</svg>