<?xml version="1.0" standalone="no"?>
<!DOCTYPE svg PUBLIC "-//W3C//DTD SVG 20010904//EN"
 "http://www.w3.org/TR/2001/REC-SVG-20010904/DTD/svg10.dtd">
<svg version="1.0" xmlns="http://www.w3.org/2000/svg"
 width="512.000000pt" height="512.000000pt" viewBox="0 0 512.000000 512.000000"
 preserveAspectRatio="xMidYMid meet">

<g transform="translate(0.000000,512.000000) scale(0.100000,-0.100000)"
fill="#000000" stroke="none">
<path d="M3164 4393 c3 -186 9 -393 12 -460 6 -115 8 -122 27 -120 39 4 27
-20 -20 -40 -26 -11 -538 -219 -1138 -463 -600 -244 -1094 -447 -1098 -450 -6
-6 94 -273 108 -288 2 -2 29 8 61 22 l59 24 6 -29 c8 -37 35 -68 74 -84 30
-13 32 -20 193 -582 89 -312 163 -571 162 -575 0 -5 -42 -8 -94 -8 l-93 0 -62
-382 c-34 -211 -64 -391 -67 -400 -5 -17 -27 -18 -280 -18 l-274 0 0 -75 0
-75 1823 2 1822 3 3 73 3 72 -141 0 -140 0 0 685 c0 450 3 685 10 685 13 0 13
93 0 106 -7 7 -10 123 -7 345 3 312 5 341 27 434 21 89 24 123 24 320 1 191
-2 235 -22 334 -99 491 -374 905 -772 1163 -47 31 -114 70 -149 88 l-64 32 7
-339z m257 -10 c96 -80 249 -240 249 -262 0 -4 -48 -27 -107 -50 l-107 -42
-93 93 -93 93 0 70 1 70 42 32 c23 17 47 32 53 32 6 1 30 -16 55 -36z m371
-435 c52 -91 128 -261 120 -269 -10 -8 -144 -61 -147 -57 -1 2 -33 77 -70 168
-36 91 -69 170 -71 176 -5 11 77 52 108 53 11 1 32 -25 60 -71z m-315 -221
l64 -158 -42 -49 c-35 -42 -44 -48 -57 -37 -8 6 -23 11 -34 9 -31 -5 -21 28
12 39 17 6 30 13 30 15 0 16 -114 284 -121 284 -4 0 -20 -5 -34 -12 -22 -10
-28 -9 -35 2 -6 10 -4 17 5 23 8 4 15 17 15 28 0 18 6 20 66 17 l67 -3 64
-158z m489 -203 c34 -118 66 -433 51 -495 -5 -18 -19 -29 -53 -42 l-46 -17
-82 88 c-45 48 -101 108 -124 133 l-43 47 3 113 3 112 125 53 c69 28 132 51
140 50 8 0 20 -20 26 -42z m-608 -42 c2 -7 -6 -16 -19 -20 -20 -8 12 -44 355
-412 l376 -403 0 -318 c0 -206 -4 -319 -10 -319 -5 0 -10 -22 -10 -50 0 -27 5
-50 10 -50 7 0 10 -235 10 -685 l0 -685 -550 0 c-433 0 -550 3 -550 13 0 6
-47 547 -105 1202 -58 654 -105 1193 -105 1197 0 4 -34 8 -75 8 l-76 0 3 122
3 122 360 147 c198 81 364 146 369 145 6 -1 12 -8 14 -14z m-888 -432 l0 -90
-73 0 -73 0 -103 -1177 c-56 -648 -105 -1193 -108 -1210 -5 -31 -7 -33 -49
-33 -24 0 -44 3 -44 6 0 10 -120 748 -125 772 -5 21 -10 22 -98 22 l-93 0
-167 586 -167 585 21 31 c26 35 30 95 9 133 -9 17 -11 30 -5 32 6 2 246 100
535 218 289 118 528 215 533 215 4 0 7 -40 7 -90z m154 -262 c3 -13 7 -51 9
-85 l5 -63 -94 0 -94 0 0 39 c0 21 3 59 6 85 l7 46 78 0 c73 0 79 -1 83 -22z
m20 -230 c3 -7 7 -43 10 -80 l5 -68 -114 0 -115 0 0 43 c0 23 3 59 6 80 l7 37
99 0 c70 0 100 -4 102 -12z m29 -330 c4 -24 9 -79 12 -123 3 -44 8 -96 11
-115 5 -31 4 -33 -9 -20 -24 24 -207 282 -207 291 0 5 42 9 94 9 l94 0 5 -42z
m-133 -193 l122 -170 -137 -3 c-76 -1 -140 0 -143 2 -3 3 1 70 7 148 12 139
20 203 26 196 1 -2 58 -79 125 -173z m-37 -480 c-87 -91 -160 -160 -162 -154
-4 13 19 301 26 312 2 4 70 7 149 7 l146 0 -159 -165z m236 -45 c6 -74 11
-147 11 -162 l0 -28 -181 0 -181 0 164 170 c89 93 166 166 169 162 3 -4 11
-68 18 -142z m31 -362 c1 -13 7 -88 14 -168 8 -80 12 -147 10 -149 -1 -2 -96
74 -209 168 l-206 171 196 0 195 0 0 -22z m-232 -214 l193 -159 -222 -3 c-122
-1 -223 -1 -225 1 -2 2 3 75 11 163 8 87 15 165 15 173 0 12 3 12 18 -1 9 -8
104 -86 210 -174z m282 -354 l0 -40 -280 0 c-307 0 -290 -4 -274 58 l6 22 274
0 274 0 0 -40z"/>
</g>
</svg>
