<?xml version="1.0" standalone="no"?>
<!DOCTYPE svg PUBLIC "-//W3C//DTD SVG 20010904//EN"
 "http://www.w3.org/TR/2001/REC-SVG-20010904/DTD/svg10.dtd">
<svg version="1.0" xmlns="http://www.w3.org/2000/svg"
 width="512.000000pt" height="512.000000pt" viewBox="0 0 512.000000 512.000000"
 preserveAspectRatio="xMidYMid meet">

<g transform="translate(0.000000,512.000000) scale(0.100000,-0.100000)"
fill="#000000" stroke="none">
<path d="M1926 5104 c-14 -14 -16 -259 -16 -2544 0 -2285 2 -2530 16 -2544 14
-14 85 -16 634 -16 549 0 620 2 634 16 14 14 16 259 16 2544 0 2285 -2 2530
-16 2544 -14 14 -85 16 -634 16 -549 0 -620 -2 -634 -16z m1184 -2544 l0
-2460 -550 0 -550 0 2 278 3 277 204 3 c130 1 209 6 218 13 18 15 16 54 -3 73
-13 14 -47 16 -220 16 l-204 0 0 155 0 155 319 0 c345 0 351 1 351 54 0 45 -6
46 -347 46 l-323 0 0 155 0 155 204 0 c173 0 207 2 220 16 21 20 20 43 -1 66
-15 16 -35 18 -220 18 l-203 0 0 155 0 155 319 0 c277 0 322 2 335 16 20 19
21 58 3 73 -9 7 -118 12 -333 13 l-319 3 -3 153 -3 152 204 0 c192 0 205 1
222 20 15 16 17 26 9 48 l-9 27 -213 3 -212 2 0 160 0 160 323 0 c341 0 347 1
347 46 0 53 -6 54 -351 54 l-319 0 2 168 3 167 210 5 210 5 9 27 c8 22 6 32
-9 48 -17 19 -30 20 -222 20 l-203 0 0 155 0 155 316 0 c198 0 322 4 335 10
22 12 26 59 7 78 -9 9 -97 12 -335 12 l-323 0 0 145 0 145 202 0 c218 0 238 5
238 56 0 48 -28 54 -242 54 l-199 0 3 153 3 152 320 2 c309 3 321 4 337 23 9
12 14 29 11 38 -14 41 -25 42 -355 42 l-318 0 0 263 c0 145 3 267 7 270 3 4
251 7 550 7 l543 0 0 -2460z"/>
</g>
</svg>
