<?xml version="1.0" encoding="utf-8"?>
<!-- Generator: Adobe Illustrator 24.1.1, SVG Export Plug-In . SVG Version: 6.00 Build 0)  -->
<svg version="1.1" id="katman_1" xmlns="http://www.w3.org/2000/svg" xmlns:xlink="http://www.w3.org/1999/xlink" x="0px" y="0px"
	 viewBox="0 0 56 62" style="enable-background:new 0 0 56 62;" xml:space="preserve">
<style type="text/css">
	.st0{clip-path:url(#SVGID_2_);fill-rule:evenodd;clip-rule:evenodd;fill:#0B0D0A;}
	.st1{clip-path:url(#SVGID_2_);fill:none;stroke:#1D1E1B;stroke-width:0.5;stroke-miterlimit:22.926;}
	.st2{clip-path:url(#SVGID_2_);fill-rule:evenodd;clip-rule:evenodd;fill:#1D1E1B;}
	.st3{clip-path:url(#SVGID_2_);fill:none;stroke:#1D1E1B;stroke-linecap:round;stroke-linejoin:round;stroke-miterlimit:22.926;}
	.st4{clip-path:url(#SVGID_2_);fill-rule:evenodd;clip-rule:evenodd;fill:#FFFFFF;}
</style>
<g>
	<defs>
		<rect id="SVGID_1_" y="8.35" width="55.93" height="45.31"/>
	</defs>
	<clipPath id="SVGID_2_">
		<use xlink:href="#SVGID_1_"  style="overflow:visible;"/>
	</clipPath>
	<path class="st0" d="M44.53,37.67c4.57,0,8.28,3.37,8.28,7.52c0,4.15-3.71,7.52-8.28,7.52s-8.28-3.37-8.28-7.52
		C36.25,41.04,39.96,37.67,44.53,37.67"/>
	<path class="st1" d="M44.53,37.67c4.57,0,8.28,3.37,8.28,7.52c0,4.15-3.71,7.52-8.28,7.52s-8.28-3.37-8.28-7.52
		C36.25,41.04,39.96,37.67,44.53,37.67z"/>
	<path class="st2" d="M31.22,40.04C27.09,24.99,17.43,20.97,2.26,27.95l4.58-1.83l0-15.9h17.74l5.17,17.12h10.49V16.73v10.61h13.82
		l-3.55,8.39H31.08L31.22,40.04z"/>
	<path class="st3" d="M31.22,40.04C27.09,24.99,17.43,20.97,2.26,27.95l4.58-1.83l0-15.9h17.74l5.17,17.12h10.49V16.73v10.61h13.82
		l-3.55,8.39H31.08L31.22,40.04z"/>
	<path class="st0" d="M13.64,29.62c7.02,0,12.71,5.17,12.71,11.55s-5.69,11.55-12.71,11.55S0.94,47.54,0.94,41.17
		S6.63,29.62,13.64,29.62"/>
	<ellipse class="st1" cx="13.64" cy="41.17" rx="12.71" ry="11.55"/>
	<path class="st4" d="M13.64,33.43c4.7,0,8.51,3.46,8.51,7.74c0,4.27-3.81,7.74-8.51,7.74s-8.51-3.47-8.51-7.74
		C5.13,36.89,8.94,33.43,13.64,33.43"/>
	<ellipse class="st1" cx="13.64" cy="41.17" rx="8.51" ry="7.74"/>
	<path class="st0" d="M13.64,37.54c2.2,0,3.99,1.62,3.99,3.62c0,2.01-1.79,3.63-3.99,3.63s-3.99-1.62-3.99-3.63
		C9.66,39.16,11.44,37.54,13.64,37.54"/>
	<path class="st1" d="M13.64,37.54c2.2,0,3.99,1.62,3.99,3.62c0,2.01-1.79,3.63-3.99,3.63s-3.99-1.62-3.99-3.63
		C9.66,39.16,11.44,37.54,13.64,37.54z"/>
	<path class="st1" d="M44.53,40.63c2.77,0,5.02,2.04,5.02,4.56c0,2.52-2.25,4.56-5.02,4.56c-2.77,0-5.02-2.04-5.02-4.56
		C39.51,42.67,41.75,40.63,44.53,40.63z"/>
	<path class="st4" d="M44.53,40.63c2.77,0,5.02,2.04,5.02,4.56c0,2.52-2.25,4.56-5.02,4.56c-2.77,0-5.02-2.04-5.02-4.56
		C39.51,42.67,41.75,40.63,44.53,40.63"/>
	<path class="st1" d="M44.53,40.63c2.77,0,5.02,2.04,5.02,4.56c0,2.52-2.25,4.56-5.02,4.56c-2.77,0-5.02-2.04-5.02-4.56
		C39.51,42.67,41.75,40.63,44.53,40.63z"/>
	<polygon class="st4" points="21.43,13.77 23.1,20.08 10.98,20.08 10.98,13.77 	"/>
	<polygon class="st1" points="21.43,13.77 23.1,20.08 10.98,20.08 10.98,13.77 	"/>
</g>
</svg>
